<?xml version="1.0" standalone="yes"?><svg xmlns="http://www.w3.org/2000/svg" xmlns:xlink="http://www.w3.org/1999/xlink" id="Layer_1" style="enable-background:new 0 0 30 30;zoom: 1;" version="1.1" viewBox="0 0 30 30" xml:space="preserve"><g><path d="M13.98,20.194 c-0.046,0.959 -0.421,1.904 -1.151,2.635 l-2,2 c-1.56,1.56 -4.098,1.56 -5.657,0 s-1.56,-4.098 0,-5.657 l2,-2 c0.78,-0.78 1.804,-1.169 2.829,-1.169 s2.049,0.39 2.829,1.169 l1.414,-1.414 C13.109,14.624 11.603,14 10,14 s-3.109,0.624 -4.243,1.757 l-2,2 C2.624,18.891 2,20.397 2,22 s0.624,3.109 1.757,4.243 S6.397,28 8,28 s3.109,-0.624 4.243,-1.757 l2,-2 C15.376,23.109 16,21.603 16,20 c0,-0.551 -0.079,-1.088 -0.221,-1.605 L13.98,20.194 " fill="#f1faee"></path><path d="M26.243,3.757 C25.109,2.624 23.603,2 22,2 s-3.109,0.624 -4.243,1.757 l-2,2 C14.624,6.891 14,8.397 14,10 s0.624,3.109 1.757,4.243 l1.414,-1.414 c-1.56,-1.56 -1.56,-4.098 0,-5.657 l2,-2 c0.78,-0.78 1.804,-1.169 2.829,-1.169 s2.049,0.39 2.829,1.169 c1.56,1.56 1.56,4.098 0,5.657 l-2,2 c-0.73,0.73 -1.676,1.105 -2.635,1.151 l-1.799,1.799 C18.912,15.921 19.449,16 20,16 c1.603,0 3.109,-0.624 4.243,-1.757 l2,-2 C27.376,11.109 28,9.603 28,8 S27.376,4.891 26.243,3.757 " fill="#f1faee"></path></g><line style="fill:none; stroke:#f1faee; stroke-width:2; stroke-linecap:round; stroke-miterlimit:10; " x1="10" x2="20" y1="20" y2="10"></line></svg>